<?xml version="1.0" standalone="no"?>
<!DOCTYPE svg PUBLIC "-//W3C//DTD SVG 20010904//EN"
 "http://www.w3.org/TR/2001/REC-SVG-20010904/DTD/svg10.dtd">
<svg version="1.0" xmlns="http://www.w3.org/2000/svg"
 width="300.000000pt" height="333.000000pt" viewBox="0 0 300.000000 333.000000"
 preserveAspectRatio="xMidYMid meet">
<metadata>
Created by potrace 1.10, written by Peter Selinger 2001-2011
</metadata>
<g transform="translate(0.000000,333.000000) scale(0.100000,-0.100000)"
fill="#000000" stroke="none">
<path d="M1410 3308 c-109 -14 -205 -63 -278 -142 -140 -152 -158 -342 -62
-634 15 -48 25 -91 21 -95 -5 -4 -64 47 -132 115 -172 171 -267 220 -431 220
-321 0 -546 -322 -435 -622 53 -146 173 -249 357 -308 80 -26 193 -52 226 -52
17 0 24 -6 24 -18 0 -15 -13 -21 -72 -31 -115 -21 -279 -77 -344 -119 -73 -48
-135 -114 -169 -182 -159 -313 71 -677 425 -674 157 2 269 63 440 241 59 61
106 101 111 96 5 -5 -2 -40 -17 -83 -62 -182 -80 -352 -48 -461 51 -173 197
-300 382 -330 248 -41 496 143 531 393 14 103 -14 275 -69 420 -33 86 -7 77
99 -34 172 -181 289 -243 456 -242 68 1 104 6 150 24 170 65 277 194 307 371
34 197 -83 405 -278 496 -75 34 -214 74 -306 88 -35 5 -48 12 -48 24 0 13 16
19 73 28 177 28 344 100 428 185 220 218 164 591 -110 736 -75 40 -130 54
-221 54 -166 1 -293 -69 -470 -260 -58 -63 -83 -83 -91 -75 -8 8 -8 17 -1 30
23 42 73 231 81 306 19 168 -29 308 -139 410 -109 101 -243 144 -390 125z
m237 -70 c77 -28 173 -121 215 -206 32 -64 33 -71 33 -192 0 -115 -3 -135 -39
-258 -36 -126 -37 -134 -22 -157 29 -44 54 -32 151 66 185 188 277 239 437
239 210 0 380 -143 419 -354 32 -173 -64 -362 -227 -444 -68 -34 -191 -75
-282 -92 -153 -30 -148 -112 8 -145 312 -65 462 -183 501 -399 33 -177 -68
-369 -235 -447 -161 -75 -329 -53 -479 64 -28 22 -93 82 -143 134 -50 51 -98
93 -107 93 -18 0 -57 -38 -57 -56 0 -6 13 -54 29 -107 43 -140 54 -206 49
-309 -3 -78 -9 -104 -35 -161 -58 -122 -181 -214 -322 -238 -179 -32 -376 73
-454 240 -55 116 -50 254 14 465 32 105 32 138 -1 156 -31 17 -53 5 -107 -57
-74 -85 -200 -191 -267 -223 -83 -39 -174 -54 -255 -41 -289 47 -452 352 -324
606 72 143 192 217 447 275 58 14 107 31 118 42 44 44 5 88 -94 108 -91 17
-214 58 -282 92 -162 81 -260 277 -227 450 43 220 224 358 453 346 139 -7 230
-60 401 -233 98 -100 120 -110 153 -74 18 19 18 23 1 82 -67 242 -68 248 -64
357 4 130 30 193 112 279 123 129 304 166 482 99z"/>
<path d="M1408 1916 c-48 -13 -61 -21 -112 -65 -74 -66 -98 -199 -52 -297 39
-84 144 -154 231 -154 48 0 124 32 168 70 60 53 87 110 87 184 0 81 -17 130
-62 181 -66 75 -167 107 -260 81z m126 -37 c59 -15 114 -62 142 -123 38 -81
28 -163 -28 -231 -44 -53 -101 -79 -173 -79 -88 0 -157 40 -196 116 -63 124
-6 266 127 313 48 17 73 18 128 4z"/>
<path d="M1440 1854 c-93 -33 -130 -68 -150 -143 -23 -85 22 -179 103 -217 65
-30 99 -30 163 0 178 83 131 342 -65 362 -20 2 -43 1 -51 -2z m119 -63 c41
-29 63 -66 68 -113 13 -112 -105 -196 -209 -150 -76 33 -113 111 -89 184 30
90 155 134 230 79z"/>
<path d="M973 2845 c0 -33 2 -45 4 -27 2 18 2 45 0 60 -2 15 -4 0 -4 -33z"/>
<path d="M1973 2845 c0 -33 2 -45 4 -27 2 18 2 45 0 60 -2 15 -4 0 -4 -33z"/>
<path d="M498 2803 c17 -2 47 -2 65 0 17 2 3 4 -33 4 -36 0 -50 -2 -32 -4z"/>
<path d="M2398 2803 c18 -2 45 -2 60 0 15 2 0 4 -33 4 -33 0 -45 -2 -27 -4z"/>
<path d="M33 2310 c0 -36 2 -50 4 -32 2 17 2 47 0 65 -2 17 -4 3 -4 -33z"/>
<path d="M2913 2305 c0 -33 2 -45 4 -27 2 18 2 45 0 60 -2 15 -4 0 -4 -33z"/>
<path d="M33 1230 c0 -36 2 -50 4 -32 2 17 2 47 0 65 -2 17 -4 3 -4 -33z"/>
<path d="M2851 957 c-86 -50 -52 -177 47 -177 78 0 121 96 70 155 -28 31 -83
41 -117 22z m87 -55 c16 -22 15 -42 -5 -64 -20 -22 -51 -23 -75 -1 -24 21 -23
48 3 74 22 22 55 19 77 -9z"/>
<path d="M62 895 c-34 -15 -52 -47 -52 -93 0 -65 72 -106 133 -77 75 35 75
135 2 170 -39 18 -41 18 -83 0z m80 -52 c22 -20 23 -41 1 -65 -20 -22 -56 -23
-77 -2 -48 48 25 113 76 67z"/>
<path d="M1973 695 c0 -33 2 -45 4 -27 2 18 2 45 0 60 -2 15 -4 0 -4 -33z"/>
<path d="M1434 190 c-59 -24 -72 -104 -25 -151 41 -40 91 -40 132 0 76 76 -7
192 -107 151z m80 -52 c20 -29 20 -47 -1 -70 -22 -25 -59 -23 -77 4 -21 30
-20 44 4 68 26 26 55 25 74 -2z"/>
</g>
</svg>
